<?xml version="1.0" encoding="UTF-8"?>
<svg xmlns="http://www.w3.org/2000/svg" version="1.1" viewBox="0 0 555.68 104.15">
  <defs>
    <style>
      .cls-1 {
        fill: #7b99fa;
      }

      .cls-2 {
        fill: #f1f2f2;
      }
    </style>
  </defs>
  <!-- Generator: Adobe Illustrator 28.7.1, SVG Export Plug-In . SVG Version: 1.2.0 Build 142)  -->
  <g>
    <g id="Layer_1">
      <g>
        <path class="cls-1" d="M221.08,102.11V11.78c0-2.95,1.03-5.43,3.08-7.48,2.05-2.05,4.55-3.08,7.48-3.08h10.26v82.12h49.28v18.77h-70.11Z"/>
        <path class="cls-1" d="M161.94,66.04v36.07h-20.82V11.78c0-2.95,1.03-5.43,3.08-7.48s4.55-3.08,7.48-3.08h34.31c10.76,0,18.77,2.73,24.05,8.21,5.48,5.48,8.21,13.59,8.21,24.35,0,10.16-2.63,18.17-7.91,24.03-5.28,5.48-12.92,8.24-22.88,8.24h-25.53ZM161.94,47.84h20.25c5.46,0,9.39-1.17,11.71-3.53,2.55-2.15,3.83-5.86,3.83-11.14,0-4.5-1.17-8.11-3.53-10.86-2.73-2.33-6.36-3.5-10.84-3.5h-21.42v29.03h0Z"/>
        <path class="cls-1" d="M64.25,70.71h19.65c0,5.66,1.38,9.86,4.11,12.62,2.93,2.93,7.03,4.38,12.32,4.38s9.48-1.35,12.04-4.1c2.93-2.53,4.38-6.36,4.38-11.44s-1.65-8.69-4.98-11.44c-3.13-2.53-8.11-3.8-14.97-3.8h-1.45c-.4,0-.73.05-1.03.15-.3.1-.45.15-.45.15v-14.09h2.05c6.08,0,10.56-1.18,13.49-3.53,2.95-2.33,4.4-5.86,4.4-10.54,0-3.73-1.28-6.86-3.8-9.39-2.15-2.15-5.48-3.23-9.99-3.23-4.88,0-8.41,1.25-10.54,3.8-2.55,2.55-3.83,6.36-3.83,11.44v.58h-10.56c-4.1,0-6.53-1.1-7.33-3.35-.78-2.25-.88-4.66-.28-7.18,1.35-5.28,4-9.69,7.91-13.22,6.26-5.65,14.77-8.51,25.53-8.51s18.57,2.55,24.63,7.63c6.26,5.08,9.39,11.74,9.39,19.95,0,4.5-1.08,8.41-3.23,11.74-2.35,3.5-5.48,6.26-9.39,8.21,5.28,2.53,9.29,5.65,12.01,9.38,2.75,3.9,4.13,8.71,4.13,14.37,0,10.36-3.43,18.47-10.29,24.35-6.63,5.66-15.92,8.51-27.86,8.51s-20.93-2.85-26.98-8.51c-6.06-5.48-9.09-13.69-9.09-24.65v-.28h0Z"/>
      </g>
      <g>
        <path class="cls-2" d="M38.4,13.3v-7.33c4.1,1.08,7.23,3.13,9.38,6.15,2.25,3.03,3.38,6.84,3.38,11.43,0,5.58-1.81,9.92-5.43,13.05-3.51,3.13-8.56,4.69-15.1,4.69s-11.14-1.51-14.66-4.54c-3.61-3.13-5.43-7.48-5.43-13.05,0-5.87,1.76-10.41,5.28-13.63,3.61-3.13,8.65-4.69,15.1-4.69h1.61c.49,0,.84.05,1.03.15v25.35c3.04-.1,5.28-.82,6.74-2.2,1.56-1.26,2.35-3.16,2.35-5.71,0-1.65-.34-3.08-1.03-4.24-.1-.3-.27-.56-.51-.81-.25-.24-.51-.51-.81-.8-.29-.1-.68-.46-1.16-1.1-.49-.64-.74-1.54-.74-2.72h0ZM26.97,30.89v-14.95c-2.64.2-4.59.88-5.87,2.05-1.36,1.28-2.05,3.08-2.05,5.43,0,2.14.69,3.9,2.05,5.26,1.38,1.38,3.33,2.1,5.87,2.2Z"/>
        <path class="cls-2" d="M22.43,55.24c-2.05,1.46-3.08,3.46-3.08,6,0,2.74.97,4.84,2.93,6.3,1.95,1.48,4.64,2.2,8.07,2.2h20.08v9.97H0v-4.98c0-1.38.49-2.55,1.46-3.53.97-.98,2.15-1.46,3.51-1.46h11.58c-2.93-1.76-4.79-4.25-5.56-7.48-.79-3.21-.59-6.29.59-9.23,1.16-2.74,3.03-5.03,5.57-6.89,2.54-1.85,6.05-2.78,10.56-2.78h22.71v9.82h-20.23c-1.46,0-2.81.13-4.03.36-1.23.25-2.48.81-3.74,1.69Z"/>
        <path class="cls-2" d="M50.42,82.64c.2,3.23.15,6.72-.15,10.48-.29,3.77-2.69,5.64-7.18,5.64H0v-5.28c0-1.26.49-2.39,1.46-3.37.97-.98,2.15-1.46,3.51-1.46h6.6v-6.02h2.05c1.46,0,2.65.49,3.59,1.46.93.98,1.39,2.15,1.39,3.53v1.03h21.69c1.66,0,2.5-.98,2.5-2.94v-3.08h7.62Z"/>
      </g>
      <g>
        <path class="cls-2" d="M331.16,60.14h9.83c-1.44,5.5-4.2,9.7-8.26,12.58-4.06,3.02-9.18,4.53-15.34,4.53-7.48,0-13.3-2.43-17.5-7.28-4.19-4.71-6.29-11.48-6.29-20.25s2.03-14.95,6.09-19.66c4.19-4.85,10.03-7.28,17.5-7.28,7.87,0,13.96,2.37,18.29,7.08,4.19,4.85,6.29,11.61,6.29,20.25v2.16c0,.65-.07,1.12-.2,1.38h-34.01c.13,4.08,1.11,7.08,2.95,9.04,1.69,2.1,4.24,3.15,7.67,3.15,2.22,0,4.13-.45,5.69-1.38.4-.13.76-.37,1.09-.69.32-.34.69-.69,1.07-1.09.13-.39.62-.91,1.48-1.56.86-.66,2.06-.99,3.64-.99h0ZM307.57,44.8h20.05c-.27-3.54-1.17-6.16-2.75-7.87-1.71-1.83-4.13-2.75-7.28-2.75-2.87,0-5.23.92-7.06,2.75-1.85,1.85-2.82,4.46-2.95,7.87Z"/>
        <path class="cls-2" d="M408.43,88.84c0,1.83-.65,3.4-1.96,4.71-1.31,1.31-2.88,1.96-4.73,1.96h-6.68v-48.96c0-9.16,2.68-15.42,8.05-18.77,5.39-3.34,11.21-5.02,17.5-5.02,3.29,0,6.59.64,9.93,1.88,3.34,1.24,6.01,3.04,7.97,5.4,3.93,5.12,5.89,11.66,5.89,19.66s-1.96,14.95-5.89,20.05c-3.94,4.98-8.98,7.48-15.13,7.48-3.29,0-6.17-.61-8.66-1.78-2.62-1.31-4.71-3.34-6.29-6.09v19.46ZM430.85,50.3c0-5.12-.99-9.04-2.95-11.8-1.96-2.75-4.78-4.13-8.46-4.13s-6.29,1.37-8.26,4.13c-1.83,2.48-2.75,6.43-2.75,11.8,0,4.98.97,8.72,2.95,11.21,1.96,2.75,4.78,4.13,8.46,4.13,3.4,0,6.09-1.38,8.05-4.13,1.96-2.75,2.95-6.49,2.95-11.21Z"/>
        <path class="cls-2" d="M499.9,76.26v-25.37c0-5.1.75-9.4,2.27-12.87,1.51-3.47,3.57-6.26,6.19-8.35,2.48-1.98,5.4-3.41,8.74-4.33,3.35-.92,6.79-1.38,10.33-1.38h1.96v13.96h-4.53c-3.79,0-6.61.92-8.46,2.75-1.83,1.83-2.75,4.71-2.75,8.66v26.93h-13.76,0Z"/>
        <path class="cls-2" d="M555.68,76.26c-4.33.27-9.01.2-14.06-.2-5.05-.39-7.57-3.61-7.57-9.63V8.63h7.08c1.69,0,3.2.65,4.51,1.96,1.31,1.31,1.96,2.89,1.96,4.71v8.86h8.07v2.75c0,1.96-.66,3.56-1.96,4.82-1.31,1.24-2.89,1.86-4.73,1.86h-1.38v29.09c0,2.23,1.31,3.36,3.94,3.36h4.13v10.22h0Z"/>
        <path class="cls-2" d="M391.88,76.26h-15.74l-9.25-16.51-9.63,16.51h-15.92l17.11-26.93-16.12-25.37h15.13l9.04,15.72,10.03-16.91h0c1.18-2.35,3.14-3.52,5.89-3.52h11.79l-19.66,30.27,17.31,26.74Z"/>
        <path class="cls-2" d="M485.45,60.14h9.83c-1.44,5.5-4.2,9.7-8.26,12.58-4.06,3.02-9.18,4.53-15.34,4.53-7.48,0-13.3-2.43-17.5-7.28-4.19-4.71-6.29-11.48-6.29-20.25s2.03-14.95,6.09-19.66c4.19-4.85,10.03-7.28,17.5-7.28,7.87,0,13.96,2.37,18.29,7.08,4.19,4.85,6.29,11.61,6.29,20.25v2.16c0,.65-.07,1.12-.2,1.38h-34.01c.13,4.08,1.11,7.08,2.95,9.04,1.69,2.1,4.24,3.15,7.67,3.15,2.22,0,4.13-.45,5.69-1.38.4-.13.76-.37,1.09-.69.32-.34.69-.69,1.07-1.09.13-.39.62-.91,1.48-1.56.86-.66,2.06-.99,3.64-.99h0ZM461.86,44.8h20.05c-.27-3.54-1.17-6.16-2.75-7.87-1.71-1.83-4.13-2.75-7.28-2.75-2.87,0-5.23.92-7.06,2.75-1.85,1.85-2.82,4.46-2.95,7.87Z"/>
      </g>
    </g>
  </g>
</svg>